<?xml version="1.0" encoding="UTF-8"?>
<svg id="YouToube_Logo" data-name="YouToube Logo" xmlns="http://www.w3.org/2000/svg" viewBox="0 0 800 800">
  <defs>
    <style>
      .cls-1 {
        fill: #f16012;
      }

      .cls-2 {
        fill: #1b0c1d;
      }
    </style>
  </defs>
  <g>
    <path class="cls-1" d="m52.19,499.38H19.06v-198.75h33.13v33.13h33.13v33.13h-33.13v132.5Zm66.25-66.25h-33.13v-66.25h33.13v66.25Zm0-66.25v-33.13h33.13v-33.13h33.13v198.75h-33.13v-132.5h-33.13Z"/>
    <path class="cls-1" d="m250.94,366.87v-33.13h33.13v-33.13h33.13v165.63h66.25v33.13h-165.63v-33.13h66.25v-99.38h-33.13Zm-33.13,0h33.13v33.13h-33.13v-33.13Z"/>
    <path class="cls-1" d="m449.69,466.25h-33.13v-132.5h33.13v132.5Zm0-132.5v-33.13h99.38v33.13h-99.38Zm0,165.63v-33.13h99.38v33.13h-99.38Zm132.5-33.13h-33.13v-132.5h33.13v132.5Z"/>
    <path class="cls-1" d="m780.94,300.62v33.13h-33.13v33.13h-33.12v-33.13h-99.38v-33.13h165.63Zm0,198.75h-165.63v-66.25h33.13v33.13h132.5v33.13Zm-132.5-99.38h33.12v33.13h-33.12v-33.13Zm33.12-33.13h33.13v33.13h-33.13v-33.13Z"/>
  </g>
  <g>
    <path class="cls-2" d="m614.85,453.12c-1.12,0-2.66-.45-4.61-1.36-1.96-.91-3.57-1.22-4.82-.94l-21.6,5.87v110.33c0,4.06.98,8.46,2.94,13.21.56,1.4.42,4.06-.42,7.97-.84,4.33-2.17,7.06-3.99,8.18-.28.14-.98.21-2.1.21-4.61,0-11.05-.91-19.3-2.73-9.23-2.1-14.68-4.13-16.36-6.08-1.96-2.52-1.89-5.87.21-10.07,1.82-3.64,2.73-6.29,2.73-7.97v-103.83l-14.89,3.78c-.7.14-1.86.73-3.46,1.78-1.61,1.05-2.97,1.44-4.09,1.15-3.22-.84-7.62-5-13.21-12.48-5.59-7.48-8.04-12.55-7.34-15.21,1.12-3.22,4.4-5.66,9.86-7.34,1.4-.42,3.22-.49,5.45-.21,2.23.28,3.98.28,5.24,0l72.99-18.67c.7-.14,2.73-.98,6.08-2.52,2.24-.98,4.26-1.33,6.08-1.05,3.91.56,6.57,2.1,7.97,4.61.98,1.68,2.03,4.82,3.15,9.44,1.4,5.45,2.1,10.21,2.1,14.26,0,3.08-.39,5.42-1.15,7.03-.77,1.61-3.25,2.48-7.45,2.62Z"/>
    <path class="cls-2" d="m755.8,432.14c-7.27,18.6-15.52,46.85-24.75,84.74-8.39,34.26-12.52,53.7-12.38,58.31-.14.42,0,3.64.42,9.65.28,3.22-.21,6.15-1.47,8.81-1.4,3.36-3.29,5.24-5.66,5.66-4.06.84-12.2-.7-24.44-4.61-12.24-3.92-19.26-7.34-21.08-10.28-.84-1.4-1.33-3.22-1.47-5.45-.14-2.8-.35-4.68-.63-5.66-15.94-50.48-25.52-95.72-28.74-135.71,0-.7-.35-2.17-1.05-4.4-.42-1.68-.56-3.15-.42-4.4.7-4.89,2.73-7.9,6.08-9.02,1.68-.56,7.55.77,17.62,3.99,10.63,3.36,16.5,6.22,17.62,8.6.56,1.4.56,4.34,0,8.81-.14.84-.63,2.06-1.47,3.67-.84,1.61-1.19,2.97-1.05,4.09,2.1,14.68,4.05,27.62,5.87,38.8,4.47,26.85,7.97,42.79,10.49,47.82,2.38-13,6.57-29.64,12.59-49.92,6.01-20.27,10.21-37.2,12.59-50.76.14-2.65.77-6.22,1.89-10.7,1.54-3.36,3.84-5.52,6.92-6.5,2.24-.7,7.48.49,15.73,3.57,8.95,3.5,14.54,7.13,16.78,10.91Z"/>
  </g>
</svg>