<?xml version="1.0" encoding="UTF-8"?>
<svg id="YouToube_Header" data-name="YouToube Header" xmlns="http://www.w3.org/2000/svg" viewBox="0 0 2560 1440">
  <defs>
    <style>
      .cls-1 {
        fill: #f16012;
      }

      .cls-2 {
        fill: #1b0c1d;
      }
    </style>
  </defs>
  <g>
    <path class="cls-1" d="m162.18,1039.38H55.73V400.62h106.45v106.47h106.47v106.45h-106.47v425.84Zm212.92-212.92h-106.45v-212.92h106.45v212.92Zm0-212.92v-106.45h106.47v-106.47h106.45v638.77h-106.45v-425.84h-106.47Z"/>
    <path class="cls-1" d="m800.93,613.54v-106.45h106.47v-106.47h106.45v532.31h212.92v106.45h-532.3v-106.45h212.92v-319.39h-106.47Zm-106.45,0h106.45v106.47h-106.45v-106.47Z"/>
    <path class="cls-1" d="m1439.68,932.93h-106.45v-425.84h106.45v425.84Zm0-425.84v-106.47h319.39v106.47h-319.39Zm0,532.3v-106.45h319.39v106.45h-319.39Zm425.84-106.45h-106.45v-425.84h106.45v425.84Z"/>
    <path class="cls-1" d="m2504.27,400.62v106.47h-106.45v106.45h-106.47v-106.45h-319.38v-106.47h532.3Zm0,638.77h-532.3v-212.92h106.45v106.47h425.84v106.45Zm-425.84-319.38h106.47v106.45h-106.47v-106.45Zm106.47-106.47h106.45v106.47h-106.45v-106.47Z"/>
  </g>
  <g>
    <path class="cls-2" d="m1967.71,895.65c-3.6,0-8.55-1.46-14.84-4.39-6.31-2.92-11.47-3.93-15.52-3.04l-69.49,18.89v354.89c0,13.05,3.14,27.22,9.44,42.51,1.79,4.5,1.35,13.05-1.35,25.64-2.7,13.94-6.98,22.71-12.82,26.31-.91.44-3.15.68-6.75.68-14.84,0-35.54-2.93-62.07-8.77-29.69-6.75-47.23-13.27-52.63-19.57-6.3-8.1-6.07-18.89.67-32.38,5.84-11.69,8.77-20.24,8.77-25.64v-333.97l-47.9,12.15c-2.26.45-5.97,2.36-11.13,5.73-5.18,3.37-9.56,4.62-13.16,3.71-10.35-2.7-24.52-16.08-42.51-40.14-18-24.06-25.86-40.37-23.61-48.92,3.6-10.34,14.17-18.22,31.71-23.61,4.49-1.35,10.34-1.57,17.54-.67,7.19.91,12.82.91,16.87,0l234.79-60.05c2.25-.44,8.77-3.14,19.57-8.1,7.19-3.14,13.72-4.27,19.57-3.37,12.59,1.8,21.14,6.75,25.64,14.84,3.14,5.4,6.52,15.52,10.12,30.36,4.49,17.54,6.75,32.84,6.75,45.88,0,9.9-1.24,17.44-3.71,22.6-2.48,5.18-10.46,7.99-23.95,8.43Z"/>
    <path class="cls-2" d="m2421.09,828.18c-23.39,59.83-49.93,150.69-79.61,272.58-26.99,110.21-40.26,172.72-39.81,187.56-.45,1.35,0,11.7,1.35,31.04.9,10.35-.67,19.79-4.72,28.34-4.5,10.79-10.57,16.87-18.22,18.22-13.05,2.7-39.25-2.26-78.6-14.84-39.36-12.6-61.97-23.61-67.81-33.06-2.7-4.49-4.28-10.34-4.72-17.54-.45-8.99-1.13-15.06-2.02-18.22-51.28-162.37-82.09-307.88-92.43-436.53,0-2.24-1.13-6.97-3.37-14.17-1.35-5.4-1.8-10.12-1.35-14.17,2.25-15.74,8.77-25.41,19.57-29.01,5.4-1.79,24.29,2.48,56.67,12.82,34.18,10.79,53.07,20.02,56.67,27.66,1.79,4.5,1.79,13.95,0,28.34-.45,2.7-2.02,6.64-4.72,11.81-2.7,5.18-3.83,9.56-3.37,13.16,6.75,47.23,13.04,88.84,18.89,124.82,14.39,86.36,25.64,137.64,33.73,153.83,7.64-41.83,21.14-95.35,40.48-160.58,19.33-65.21,32.83-119.64,40.48-163.28.44-8.54,2.47-20.01,6.07-34.41,4.94-10.79,12.36-17.76,22.26-20.92,7.19-2.24,24.06,1.58,50.6,11.47,28.78,11.25,46.78,22.94,53.98,35.09Z"/>
  </g>
</svg>