<?xml version="1.0" encoding="UTF-8"?><svg id="Ebene_1" xmlns="http://www.w3.org/2000/svg" viewBox="0 0 917 838"><defs><style>.cls-1{fill:#fff;}.cls-2{fill:#999;}.cls-3{fill:#f0f;}</style></defs><rect class="cls-1" width="917" height="838"/><path class="cls-2" d="m39.97,52.45v-14.72h14.72v-14.72h14.72v73.61h29.44v14.72H25.24v-14.72h29.44v-44.16h-14.72Zm-14.72,0h14.72v14.72h-14.72v-14.72Z"/><path class="cls-2" d="m128.3,96.61h-14.72v-58.89h14.72v58.89Zm0-58.89v-14.72h44.16v14.72h-44.16Zm0,73.61v-14.72h44.16v14.72h-44.16Zm58.89-14.72h-14.72v-58.89h14.72v58.89Z"/><path class="cls-2" d="m216.63,96.61h-14.72v-58.89h14.72v58.89Zm0-58.89v-14.72h44.16v14.72h-44.16Zm0,73.61v-14.72h44.16v14.72h-44.16Zm58.89-14.72h-14.72v-58.89h14.72v58.89Z"/><path class="cls-2" d="m304.96,96.61h-14.72v-58.89h14.72v58.89Zm0-58.89v-14.72h44.16v14.72h-44.16Zm0,73.61v-14.72h44.16v14.72h-44.16Zm58.89-14.72h-14.72v-58.89h14.72v58.89Z"/><path class="cls-2" d="m393.29,52.45v-14.72h14.72v-14.72h14.72v73.61h29.44v14.72h-73.61v-14.72h29.44v-44.16h-14.72Zm-14.72,0h14.72v14.72h-14.72v-14.72Z"/><path class="cls-2" d="m481.62,96.61h-14.72v-58.89h14.72v58.89Zm0-58.89v-14.72h44.16v14.72h-44.16Zm0,73.61v-14.72h44.16v14.72h-44.16Zm58.89-14.72h-14.72v-58.89h14.72v58.89Z"/><path class="cls-2" d="m569.95,96.61h-14.72v-58.89h14.72v58.89Zm0-58.89v-14.72h44.16v14.72h-44.16Zm0,73.61v-14.72h44.16v14.72h-44.16Zm58.89-14.72h-14.72v-58.89h14.72v58.89Z"/><path class="cls-2" d="m658.27,52.45v-14.72h14.72v-14.72h14.72v73.61h29.44v14.72h-73.61v-14.72h29.44v-44.16h-14.72Zm-14.72,0h14.72v14.72h-14.72v-14.72Z"/><path class="cls-2" d="m746.6,52.45v-14.72h14.72v-14.72h14.72v73.61h29.44v14.72h-73.61v-14.72h29.44v-44.16h-14.72Zm-14.72,0h14.72v14.72h-14.72v-14.72Z"/><path class="cls-2" d="m834.93,96.61h-14.72v-58.89h14.72v58.89Zm0-58.89v-14.72h44.16v14.72h-44.16Zm0,73.61v-14.72h44.16v14.72h-44.16Zm58.89-14.72h-14.72v-58.89h14.72v58.89Z"/><path class="cls-2" d="m39.97,273.28h-14.72v-58.89h14.72v58.89Zm0-58.89v-14.72h44.16v14.72h-44.16Zm0,73.61v-14.72h44.16v14.72h-44.16Zm58.89-14.72h-14.72v-58.89h14.72v58.89Z"/><path class="cls-2" d="m128.3,273.28h-14.72v-58.89h14.72v58.89Zm0-58.89v-14.72h44.16v14.72h-44.16Zm0,73.61v-14.72h44.16v14.72h-44.16Zm58.89-14.72h-14.72v-58.89h14.72v58.89Z"/><path class="cls-2" d="m216.63,229.12v-14.72h14.72v-14.72h14.72v73.61h29.44v14.72h-73.61v-14.72h29.44v-44.16h-14.72Zm-14.72,0h14.72v14.72h-14.72v-14.72Z"/><path class="cls-2" d="m304.96,229.12v-14.72h14.72v-14.72h14.72v73.61h29.44v14.72h-73.61v-14.72h29.44v-44.16h-14.72Zm-14.72,0h14.72v14.72h-14.72v-14.72Z"/><path class="cls-3" d="m394.23,292.89h-18.76v-112.52h18.76v18.76h18.75v18.76h-18.75v75.01Zm37.51-37.51h-18.76v-37.51h18.76v37.51Zm0-37.51v-18.76h18.75v-18.76h18.76v112.52h-18.76v-75.01h-18.75Z"/><path class="cls-3" d="m506.74,217.88v-18.76h18.75v-18.76h18.76v93.77h37.51v18.76h-93.77v-18.76h37.51v-56.25h-18.75Zm-18.76,0h18.76v18.75h-18.76v-18.75Z"/><path class="cls-3" d="m619.26,274.14h-18.76v-75.01h18.76v75.01Zm0-75.01v-18.76h56.25v18.76h-56.25Zm0,93.77v-18.76h56.25v18.76h-56.25Zm75.01-18.76h-18.76v-75.01h18.76v75.01Z"/><path class="cls-3" d="m806.78,180.37v18.76h-18.76v18.76h-18.75v-18.76h-56.26v-18.76h93.77Zm0,112.52h-93.77v-37.51h18.76v18.75h75.01v18.76Zm-75.01-56.26h18.75v18.76h-18.75v-18.76Zm18.75-18.75h18.76v18.75h-18.76v-18.75Z"/><path class="cls-2" d="m834.93,229.12v-14.72h14.72v-14.72h14.72v73.61h29.44v14.72h-73.61v-14.72h29.44v-44.16h-14.72Zm-14.72,0h14.72v14.72h-14.72v-14.72Z"/><path class="cls-2" d="m39.97,449.95h-14.72v-58.89h14.72v58.89Zm0-58.89v-14.72h44.16v14.72h-44.16Zm0,73.61v-14.72h44.16v14.72h-44.16Zm58.89-14.72h-14.72v-58.89h14.72v58.89Z"/><path class="cls-2" d="m128.3,449.95h-14.72v-58.89h14.72v58.89Zm0-58.89v-14.72h44.16v14.72h-44.16Zm0,73.61v-14.72h44.16v14.72h-44.16Zm58.89-14.72h-14.72v-58.89h14.72v58.89Z"/><path class="cls-2" d="m216.63,449.95h-14.72v-58.89h14.72v58.89Zm0-58.89v-14.72h44.16v14.72h-44.16Zm0,73.61v-14.72h44.16v14.72h-44.16Zm58.89-14.72h-14.72v-58.89h14.72v58.89Z"/><path class="cls-2" d="m304.96,449.95h-14.72v-58.89h14.72v58.89Zm0-58.89v-14.72h44.16v14.72h-44.16Zm0,73.61v-14.72h44.16v14.72h-44.16Zm58.89-14.72h-14.72v-58.89h14.72v58.89Z"/><path class="cls-2" d="m393.29,405.78v-14.72h14.72v-14.72h14.72v73.61h29.44v14.72h-73.61v-14.72h29.44v-44.16h-14.72Zm-14.72,0h14.72v14.72h-14.72v-14.72Z"/><path class="cls-2" d="m481.62,449.95h-14.72v-58.89h14.72v58.89Zm0-58.89v-14.72h44.16v14.72h-44.16Zm0,73.61v-14.72h44.16v14.72h-44.16Zm58.89-14.72h-14.72v-58.89h14.72v58.89Z"/><path class="cls-2" d="m569.95,405.78v-14.72h14.72v-14.72h14.72v73.61h29.44v14.72h-73.61v-14.72h29.44v-44.16h-14.72Zm-14.72,0h14.72v14.72h-14.72v-14.72Z"/><path class="cls-2" d="m658.27,405.78v-14.72h14.72v-14.72h14.72v73.61h29.44v14.72h-73.61v-14.72h29.44v-44.16h-14.72Zm-14.72,0h14.72v14.72h-14.72v-14.72Z"/><path class="cls-2" d="m746.6,449.95h-14.72v-58.89h14.72v58.89Zm0-58.89v-14.72h44.16v14.72h-44.16Zm0,73.61v-14.72h44.16v14.72h-44.16Zm58.89-14.72h-14.72v-58.89h14.72v58.89Z"/><path class="cls-2" d="m834.93,405.78v-14.72h14.72v-14.72h14.72v73.61h29.44v14.72h-73.61v-14.72h29.44v-44.16h-14.72Zm-14.72,0h14.72v14.72h-14.72v-14.72Z"/><path class="cls-2" d="m39.97,626.61h-14.72v-58.89h14.72v58.89Zm0-58.89v-14.72h44.16v14.72h-44.16Zm0,73.61v-14.72h44.16v14.72h-44.16Zm58.89-14.72h-14.72v-58.89h14.72v58.89Z"/><path class="cls-2" d="m128.3,626.61h-14.72v-58.89h14.72v58.89Zm0-58.89v-14.72h44.16v14.72h-44.16Zm0,73.61v-14.72h44.16v14.72h-44.16Zm58.89-14.72h-14.72v-58.89h14.72v58.89Z"/><path class="cls-2" d="m216.63,626.61h-14.72v-58.89h14.72v58.89Zm0-58.89v-14.72h44.16v14.72h-44.16Zm0,73.61v-14.72h44.16v14.72h-44.16Zm58.89-14.72h-14.72v-58.89h14.72v58.89Z"/><path class="cls-2" d="m304.96,582.45v-14.72h14.72v-14.72h14.72v73.61h29.44v14.72h-73.61v-14.72h29.44v-44.16h-14.72Zm-14.72,0h14.72v14.72h-14.72v-14.72Z"/><path class="cls-2" d="m393.29,626.61h-14.72v-58.89h14.72v58.89Zm0-58.89v-14.72h44.16v14.72h-44.16Zm0,73.61v-14.72h44.16v14.72h-44.16Zm58.89-14.72h-14.72v-58.89h14.72v58.89Z"/><path class="cls-2" d="m481.62,626.61h-14.72v-58.89h14.72v58.89Zm0-58.89v-14.72h44.16v14.72h-44.16Zm0,73.61v-14.72h44.16v14.72h-44.16Zm58.89-14.72h-14.72v-58.89h14.72v58.89Z"/><path class="cls-2" d="m569.95,582.45v-14.72h14.72v-14.72h14.72v73.61h29.44v14.72h-73.61v-14.72h29.44v-44.16h-14.72Zm-14.72,0h14.72v14.72h-14.72v-14.72Z"/><path class="cls-2" d="m658.27,582.45v-14.72h14.72v-14.72h14.72v73.61h29.44v14.72h-73.61v-14.72h29.44v-44.16h-14.72Zm-14.72,0h14.72v14.72h-14.72v-14.72Z"/><path class="cls-2" d="m746.6,626.61h-14.72v-58.89h14.72v58.89Zm0-58.89v-14.72h44.16v14.72h-44.16Zm0,73.61v-14.72h44.16v14.72h-44.16Zm58.89-14.72h-14.72v-58.89h14.72v58.89Z"/><path class="cls-2" d="m834.93,626.61h-14.72v-58.89h14.72v58.89Zm0-58.89v-14.72h44.16v14.72h-44.16Zm0,73.61v-14.72h44.16v14.72h-44.16Zm58.89-14.72h-14.72v-58.89h14.72v58.89Z"/><path class="cls-2" d="m39.97,803.28h-14.72v-58.89h14.72v58.89Zm0-58.89v-14.72h44.16v14.72h-44.16Zm0,73.61v-14.72h44.16v14.72h-44.16Zm58.89-14.72h-14.72v-58.89h14.72v58.89Z"/><path class="cls-2" d="m128.3,759.11v-14.72h14.72v-14.72h14.72v73.61h29.44v14.72h-73.61v-14.72h29.44v-44.16h-14.72Zm-14.72,0h14.72v14.72h-14.72v-14.72Z"/><path class="cls-2" d="m216.63,759.11v-14.72h14.72v-14.72h14.72v73.61h29.44v14.72h-73.61v-14.72h29.44v-44.16h-14.72Zm-14.72,0h14.72v14.72h-14.72v-14.72Z"/><path class="cls-2" d="m304.96,803.28h-14.72v-58.89h14.72v58.89Zm0-58.89v-14.72h44.16v14.72h-44.16Zm0,73.61v-14.72h44.16v14.72h-44.16Zm58.89-14.72h-14.72v-58.89h14.72v58.89Z"/><path class="cls-2" d="m393.29,759.11v-14.72h14.72v-14.72h14.72v73.61h29.44v14.72h-73.61v-14.72h29.44v-44.16h-14.72Zm-14.72,0h14.72v14.72h-14.72v-14.72Z"/><path class="cls-2" d="m481.62,803.28h-14.72v-58.89h14.72v58.89Zm0-58.89v-14.72h44.16v14.72h-44.16Zm0,73.61v-14.72h44.16v14.72h-44.16Zm58.89-14.72h-14.72v-58.89h14.72v58.89Z"/><path class="cls-2" d="m569.95,803.28h-14.72v-58.89h14.72v58.89Zm0-58.89v-14.72h44.16v14.72h-44.16Zm0,73.61v-14.72h44.16v14.72h-44.16Zm58.89-14.72h-14.72v-58.89h14.72v58.89Z"/><path class="cls-2" d="m658.27,759.11v-14.72h14.72v-14.72h14.72v73.61h29.44v14.72h-73.61v-14.72h29.44v-44.16h-14.72Zm-14.72,0h14.72v14.72h-14.72v-14.72Z"/><path class="cls-2" d="m746.6,759.11v-14.72h14.72v-14.72h14.72v73.61h29.44v14.72h-73.61v-14.72h29.44v-44.16h-14.72Zm-14.72,0h14.72v14.72h-14.72v-14.72Z"/><path class="cls-2" d="m834.93,803.28h-14.72v-58.89h14.72v58.89Zm0-58.89v-14.72h44.16v14.72h-44.16Zm0,73.61v-14.72h44.16v14.72h-44.16Zm58.89-14.72h-14.72v-58.89h14.72v58.89Z"/></svg>