<?xml version="1.0" encoding="UTF-8"?><svg id="Ebene_1" xmlns="http://www.w3.org/2000/svg" viewBox="0 0 907 838"><defs><style>.cls-1{fill:#999;}.cls-2{fill:#f0f;}</style></defs><path class="cls-1" d="m33.47,45.45v-14.72h14.72v-14.72h14.72v73.61h29.44v14.72H18.74v-14.72h29.44v-44.16h-14.72Zm-14.72,0h14.72v14.72h-14.72v-14.72Z"/><path class="cls-1" d="m121.8,89.61h-14.72V30.72h14.72v58.89Zm0-58.89v-14.72h44.16v14.72h-44.16Zm0,73.61v-14.72h44.16v14.72h-44.16Zm58.89-14.72h-14.72V30.72h14.72v58.89Z"/><path class="cls-1" d="m210.13,89.61h-14.72V30.72h14.72v58.89Zm0-58.89v-14.72h44.16v14.72h-44.16Zm0,73.61v-14.72h44.16v14.72h-44.16Zm58.89-14.72h-14.72V30.72h14.72v58.89Z"/><path class="cls-1" d="m298.46,89.61h-14.72V30.72h14.72v58.89Zm0-58.89v-14.72h44.16v14.72h-44.16Zm0,73.61v-14.72h44.16v14.72h-44.16Zm58.89-14.72h-14.72V30.72h14.72v58.89Z"/><path class="cls-1" d="m386.79,45.45v-14.72h14.72v-14.72h14.72v73.61h29.44v14.72h-73.61v-14.72h29.44v-44.16h-14.72Zm-14.72,0h14.72v14.72h-14.72v-14.72Z"/><path class="cls-1" d="m475.12,89.61h-14.72V30.72h14.72v58.89Zm0-58.89v-14.72h44.16v14.72h-44.16Zm0,73.61v-14.72h44.16v14.72h-44.16Zm58.89-14.72h-14.72V30.72h14.72v58.89Z"/><path class="cls-1" d="m563.45,89.61h-14.72V30.72h14.72v58.89Zm0-58.89v-14.72h44.16v14.72h-44.16Zm0,73.61v-14.72h44.16v14.72h-44.16Zm58.89-14.72h-14.72V30.72h14.72v58.89Z"/><path class="cls-1" d="m651.77,45.45v-14.72h14.72v-14.72h14.72v73.61h29.44v14.72h-73.61v-14.72h29.44v-44.16h-14.72Zm-14.72,0h14.72v14.72h-14.72v-14.72Z"/><path class="cls-1" d="m740.1,45.45v-14.72h14.72v-14.72h14.72v73.61h29.44v14.72h-73.61v-14.72h29.44v-44.16h-14.72Zm-14.72,0h14.72v14.72h-14.72v-14.72Z"/><path class="cls-1" d="m828.43,89.61h-14.72V30.72h14.72v58.89Zm0-58.89v-14.72h44.16v14.72h-44.16Zm0,73.61v-14.72h44.16v14.72h-44.16Zm58.89-14.72h-14.72V30.72h14.72v58.89Z"/><path class="cls-1" d="m33.47,266.28h-14.72v-58.89h14.72v58.89Zm0-58.89v-14.72h44.16v14.72h-44.16Zm0,73.61v-14.72h44.16v14.72h-44.16Zm58.89-14.72h-14.72v-58.89h14.72v58.89Z"/><path class="cls-1" d="m121.8,266.28h-14.72v-58.89h14.72v58.89Zm0-58.89v-14.72h44.16v14.72h-44.16Zm0,73.61v-14.72h44.16v14.72h-44.16Zm58.89-14.72h-14.72v-58.89h14.72v58.89Z"/><path class="cls-1" d="m210.13,222.12v-14.72h14.72v-14.72h14.72v73.61h29.44v14.72h-73.61v-14.72h29.44v-44.16h-14.72Zm-14.72,0h14.72v14.72h-14.72v-14.72Z"/><path class="cls-1" d="m298.46,222.12v-14.72h14.72v-14.72h14.72v73.61h29.44v14.72h-73.61v-14.72h29.44v-44.16h-14.72Zm-14.72,0h14.72v14.72h-14.72v-14.72Z"/><path class="cls-2" d="m387.73,285.89h-18.76v-112.52h18.76v18.76h18.75v18.76h-18.75v75.01Zm37.51-37.51h-18.76v-37.51h18.76v37.51Zm0-37.51v-18.76h18.75v-18.76h18.76v112.52h-18.76v-75.01h-18.75Z"/><path class="cls-2" d="m500.24,210.88v-18.76h18.75v-18.76h18.76v93.77h37.51v18.76h-93.77v-18.76h37.51v-56.25h-18.75Zm-18.76,0h18.76v18.75h-18.76v-18.75Z"/><path class="cls-2" d="m612.76,267.14h-18.76v-75.01h18.76v75.01Zm0-75.01v-18.76h56.25v18.76h-56.25Zm0,93.77v-18.76h56.25v18.76h-56.25Zm75.01-18.76h-18.76v-75.01h18.76v75.01Z"/><path class="cls-2" d="m800.28,173.37v18.76h-18.76v18.76h-18.75v-18.76h-56.26v-18.76h93.77Zm0,112.52h-93.77v-37.51h18.76v18.75h75.01v18.76Zm-75.01-56.26h18.75v18.76h-18.75v-18.76Zm18.75-18.75h18.76v18.75h-18.76v-18.75Z"/><path class="cls-1" d="m828.43,222.12v-14.72h14.72v-14.72h14.72v73.61h29.44v14.72h-73.61v-14.72h29.44v-44.16h-14.72Zm-14.72,0h14.72v14.72h-14.72v-14.72Z"/><path class="cls-1" d="m33.47,442.95h-14.72v-58.89h14.72v58.89Zm0-58.89v-14.72h44.16v14.72h-44.16Zm0,73.61v-14.72h44.16v14.72h-44.16Zm58.89-14.72h-14.72v-58.89h14.72v58.89Z"/><path class="cls-1" d="m121.8,442.95h-14.72v-58.89h14.72v58.89Zm0-58.89v-14.72h44.16v14.72h-44.16Zm0,73.61v-14.72h44.16v14.72h-44.16Zm58.89-14.72h-14.72v-58.89h14.72v58.89Z"/><path class="cls-1" d="m210.13,442.95h-14.72v-58.89h14.72v58.89Zm0-58.89v-14.72h44.16v14.72h-44.16Zm0,73.61v-14.72h44.16v14.72h-44.16Zm58.89-14.72h-14.72v-58.89h14.72v58.89Z"/><path class="cls-1" d="m298.46,442.95h-14.72v-58.89h14.72v58.89Zm0-58.89v-14.72h44.16v14.72h-44.16Zm0,73.61v-14.72h44.16v14.72h-44.16Zm58.89-14.72h-14.72v-58.89h14.72v58.89Z"/><path class="cls-1" d="m386.79,398.78v-14.72h14.72v-14.72h14.72v73.61h29.44v14.72h-73.61v-14.72h29.44v-44.16h-14.72Zm-14.72,0h14.72v14.72h-14.72v-14.72Z"/><path class="cls-1" d="m475.12,442.95h-14.72v-58.89h14.72v58.89Zm0-58.89v-14.72h44.16v14.72h-44.16Zm0,73.61v-14.72h44.16v14.72h-44.16Zm58.89-14.72h-14.72v-58.89h14.72v58.89Z"/><path class="cls-1" d="m563.45,398.78v-14.72h14.72v-14.72h14.72v73.61h29.44v14.72h-73.61v-14.72h29.44v-44.16h-14.72Zm-14.72,0h14.72v14.72h-14.72v-14.72Z"/><path class="cls-1" d="m651.77,398.78v-14.72h14.72v-14.72h14.72v73.61h29.44v14.72h-73.61v-14.72h29.44v-44.16h-14.72Zm-14.72,0h14.72v14.72h-14.72v-14.72Z"/><path class="cls-1" d="m740.1,442.95h-14.72v-58.89h14.72v58.89Zm0-58.89v-14.72h44.16v14.72h-44.16Zm0,73.61v-14.72h44.16v14.72h-44.16Zm58.89-14.72h-14.72v-58.89h14.72v58.89Z"/><path class="cls-1" d="m828.43,398.78v-14.72h14.72v-14.72h14.72v73.61h29.44v14.72h-73.61v-14.72h29.44v-44.16h-14.72Zm-14.72,0h14.72v14.72h-14.72v-14.72Z"/><path class="cls-1" d="m33.47,619.61h-14.72v-58.89h14.72v58.89Zm0-58.89v-14.72h44.16v14.72h-44.16Zm0,73.61v-14.72h44.16v14.72h-44.16Zm58.89-14.72h-14.72v-58.89h14.72v58.89Z"/><path class="cls-1" d="m121.8,619.61h-14.72v-58.89h14.72v58.89Zm0-58.89v-14.72h44.16v14.72h-44.16Zm0,73.61v-14.72h44.16v14.72h-44.16Zm58.89-14.72h-14.72v-58.89h14.72v58.89Z"/><path class="cls-1" d="m210.13,619.61h-14.72v-58.89h14.72v58.89Zm0-58.89v-14.72h44.16v14.72h-44.16Zm0,73.61v-14.72h44.16v14.72h-44.16Zm58.89-14.72h-14.72v-58.89h14.72v58.89Z"/><path class="cls-1" d="m298.46,575.45v-14.72h14.72v-14.72h14.72v73.61h29.44v14.72h-73.61v-14.72h29.44v-44.16h-14.72Zm-14.72,0h14.72v14.72h-14.72v-14.72Z"/><path class="cls-1" d="m386.79,619.61h-14.72v-58.89h14.72v58.89Zm0-58.89v-14.72h44.16v14.72h-44.16Zm0,73.61v-14.72h44.16v14.72h-44.16Zm58.89-14.72h-14.72v-58.89h14.72v58.89Z"/><path class="cls-1" d="m475.12,619.61h-14.72v-58.89h14.72v58.89Zm0-58.89v-14.72h44.16v14.72h-44.16Zm0,73.61v-14.72h44.16v14.72h-44.16Zm58.89-14.72h-14.72v-58.89h14.72v58.89Z"/><path class="cls-1" d="m563.45,575.45v-14.72h14.72v-14.72h14.72v73.61h29.44v14.72h-73.61v-14.72h29.44v-44.16h-14.72Zm-14.72,0h14.72v14.72h-14.72v-14.72Z"/><path class="cls-1" d="m651.77,575.45v-14.72h14.72v-14.72h14.72v73.61h29.44v14.72h-73.61v-14.72h29.44v-44.16h-14.72Zm-14.72,0h14.72v14.72h-14.72v-14.72Z"/><path class="cls-1" d="m740.1,619.61h-14.72v-58.89h14.72v58.89Zm0-58.89v-14.72h44.16v14.72h-44.16Zm0,73.61v-14.72h44.16v14.72h-44.16Zm58.89-14.72h-14.72v-58.89h14.72v58.89Z"/><path class="cls-1" d="m828.43,619.61h-14.72v-58.89h14.72v58.89Zm0-58.89v-14.72h44.16v14.72h-44.16Zm0,73.61v-14.72h44.16v14.72h-44.16Zm58.89-14.72h-14.72v-58.89h14.72v58.89Z"/><path class="cls-1" d="m33.47,796.28h-14.72v-58.89h14.72v58.89Zm0-58.89v-14.72h44.16v14.72h-44.16Zm0,73.61v-14.72h44.16v14.72h-44.16Zm58.89-14.72h-14.72v-58.89h14.72v58.89Z"/><path class="cls-1" d="m121.8,752.11v-14.72h14.72v-14.72h14.72v73.61h29.44v14.72h-73.61v-14.72h29.44v-44.16h-14.72Zm-14.72,0h14.72v14.72h-14.72v-14.72Z"/><path class="cls-1" d="m210.13,752.11v-14.72h14.72v-14.72h14.72v73.61h29.44v14.72h-73.61v-14.72h29.44v-44.16h-14.72Zm-14.72,0h14.72v14.72h-14.72v-14.72Z"/><path class="cls-1" d="m298.46,796.28h-14.72v-58.89h14.72v58.89Zm0-58.89v-14.72h44.16v14.72h-44.16Zm0,73.61v-14.72h44.16v14.72h-44.16Zm58.89-14.72h-14.72v-58.89h14.72v58.89Z"/><path class="cls-1" d="m386.79,752.11v-14.72h14.72v-14.72h14.72v73.61h29.44v14.72h-73.61v-14.72h29.44v-44.16h-14.72Zm-14.72,0h14.72v14.72h-14.72v-14.72Z"/><path class="cls-1" d="m475.12,796.28h-14.72v-58.89h14.72v58.89Zm0-58.89v-14.72h44.16v14.72h-44.16Zm0,73.61v-14.72h44.16v14.72h-44.16Zm58.89-14.72h-14.72v-58.89h14.72v58.89Z"/><path class="cls-1" d="m563.45,796.28h-14.72v-58.89h14.72v58.89Zm0-58.89v-14.72h44.16v14.72h-44.16Zm0,73.61v-14.72h44.16v14.72h-44.16Zm58.89-14.72h-14.72v-58.89h14.72v58.89Z"/><path class="cls-1" d="m651.77,752.11v-14.72h14.72v-14.72h14.72v73.61h29.44v14.72h-73.61v-14.72h29.44v-44.16h-14.72Zm-14.72,0h14.72v14.72h-14.72v-14.72Z"/><path class="cls-1" d="m740.1,752.11v-14.72h14.72v-14.72h14.72v73.61h29.44v14.72h-73.61v-14.72h29.44v-44.16h-14.72Zm-14.72,0h14.72v14.72h-14.72v-14.72Z"/><path class="cls-1" d="m828.43,796.28h-14.72v-58.89h14.72v58.89Zm0-58.89v-14.72h44.16v14.72h-44.16Zm0,73.61v-14.72h44.16v14.72h-44.16Zm58.89-14.72h-14.72v-58.89h14.72v58.89Z"/></svg>