<?xml version="1.0" encoding="utf-8"?>
<!-- Generator: Adobe Illustrator 27.3.1, SVG Export Plug-In . SVG Version: 6.00 Build 0)  -->
<svg version="1.1" id="Ebene_1" xmlns="http://www.w3.org/2000/svg" xmlns:xlink="http://www.w3.org/1999/xlink" x="0px" y="0px"
	 viewBox="0 0 500 500" style="enable-background:new 0 0 500 500;" xml:space="preserve">
<style type="text/css">
	.st0{fill:#EA661F;}
</style>
<path class="st0" d="M25.1,311.9H3.8V184h21.3v21.3h21.3v21.3H25.1L25.1,311.9L25.1,311.9z M67.7,269.3H46.4v-42.6h21.3V269.3z
	 M67.7,226.6v-21.3H89V184h21.3v127.9H89v-85.3L67.7,226.6L67.7,226.6z"/>
<path class="st0" d="M152.9,226.6v-21.3h21.3V184h21.3v106.6h42.6v21.3H131.6v-21.3h42.6v-63.9L152.9,226.6L152.9,226.6z
	 M131.6,226.6h21.3v21.3h-21.3V226.6z"/>
<path class="st0" d="M280.7,290.6h-21.3v-85.2h21.3V290.6L280.7,290.6z M280.7,205.3V184h63.9v21.3L280.7,205.3L280.7,205.3z
	 M280.7,311.9v-21.3h63.9v21.3H280.7z M365.9,290.6h-21.3v-85.2h21.3V290.6L365.9,290.6z"/>
<path class="st0" d="M493.8,184v21.3h-21.3v21.3h-21.3v-21.3h-63.9V184H493.8z M493.8,311.9H387.2v-42.6h21.3v21.3h85.2V311.9
	L493.8,311.9z M408.5,247.9h21.3v21.3h-21.3V247.9z M429.8,226.6h21.3v21.3h-21.3V226.6z"/>
</svg>
