<?xml version="1.0" encoding="UTF-8"?>
<svg id="Instagram_Post" data-name="Instagram Post" xmlns="http://www.w3.org/2000/svg" viewBox="0 0 1080 1080">
  <defs>
    <style>
      .cls-1 {
        fill: #f16012;
      }
    </style>
  </defs>
  <path class="cls-1" d="m69.69,674.38H24.89v-268.75h44.79v44.79h44.79v44.79h-44.79v179.17Zm89.58-89.58h-44.79v-89.58h44.79v89.58Zm0-89.58v-44.79h44.79v-44.79h44.79v268.75h-44.79v-179.17h-44.79Z"/>
  <path class="cls-1" d="m338.44,495.21v-44.79h44.79v-44.79h44.79v223.96h89.58v44.79h-223.96v-44.79h89.58v-134.38h-44.79Zm-44.79,0h44.79v44.79h-44.79v-44.79Z"/>
  <path class="cls-1" d="m607.19,629.58h-44.79v-179.17h44.79v179.17Zm0-179.17v-44.79h134.38v44.79h-134.38Zm0,223.96v-44.79h134.38v44.79h-134.38Zm179.17-44.79h-44.79v-179.17h44.79v179.17Z"/>
  <path class="cls-1" d="m1055.11,405.62v44.79h-44.79v44.79h-44.79v-44.79h-134.38v-44.79h223.96Zm0,268.75h-223.96v-89.58h44.79v44.79h179.17v44.79Zm-179.17-134.38h44.79v44.79h-44.79v-44.79Zm44.79-44.79h44.79v44.79h-44.79v-44.79Z"/>
</svg>