<?xml version="1.0" encoding="UTF-8"?>
<svg id="Ebene_1" data-name="Ebene 1" xmlns="http://www.w3.org/2000/svg" viewBox="0 0 800 800">
  <defs>
    <style>
      .cls-1 {
        fill: #f16012;
      }

      .cls-2 {
        fill: #1b0c1d;
      }
    </style>
  </defs>
  <rect class="cls-2" width="800" height="800"/>
  <g>
    <path class="cls-1" d="m52.19,499.38H19.06v-198.75h33.13v33.13h33.13v33.13h-33.13v132.5Zm66.25-66.25h-33.13v-66.25h33.13v66.25Zm0-66.25v-33.13h33.13v-33.13h33.13v198.75h-33.13v-132.5h-33.13Z"/>
    <path class="cls-1" d="m250.94,366.87v-33.13h33.13v-33.13h33.13v165.63h66.25v33.13h-165.63v-33.13h66.25v-99.38h-33.13Zm-33.13,0h33.13v33.13h-33.13v-33.13Z"/>
    <path class="cls-1" d="m449.69,466.25h-33.13v-132.5h33.13v132.5Zm0-132.5v-33.13h99.38v33.13h-99.38Zm0,165.63v-33.13h99.38v33.13h-99.38Zm132.5-33.13h-33.13v-132.5h33.13v132.5Z"/>
    <path class="cls-1" d="m780.94,300.62v33.13h-33.13v33.13h-33.12v-33.13h-99.38v-33.13h165.63Zm0,198.75h-165.63v-66.25h33.13v33.13h132.5v33.13Zm-132.5-99.38h33.12v33.13h-33.12v-33.13Zm33.12-33.13h33.13v33.13h-33.13v-33.13Z"/>
  </g>
</svg>