<?xml version="1.0" encoding="UTF-8"?>
<svg id="YouToube_Header" data-name="YouToube Header" xmlns="http://www.w3.org/2000/svg" viewBox="0 0 2560 1440">
  <defs>
    <style>
      .cls-1 {
        fill: #f16012;
      }
    </style>
  </defs>
  <path class="cls-1" d="m162.18,1039.38H55.73V400.62h106.45v106.47h106.47v106.45h-106.47v425.84Zm212.92-212.92h-106.45v-212.92h106.45v212.92Zm0-212.92v-106.45h106.47v-106.47h106.45v638.77h-106.45v-425.84h-106.47Z"/>
  <path class="cls-1" d="m800.93,613.54v-106.45h106.47v-106.47h106.45v532.31h212.92v106.45h-532.3v-106.45h212.92v-319.39h-106.47Zm-106.45,0h106.45v106.47h-106.45v-106.47Z"/>
  <path class="cls-1" d="m1439.68,932.93h-106.45v-425.84h106.45v425.84Zm0-425.84v-106.47h319.39v106.47h-319.39Zm0,532.3v-106.45h319.39v106.45h-319.39Zm425.84-106.45h-106.45v-425.84h106.45v425.84Z"/>
  <path class="cls-1" d="m2504.27,400.62v106.47h-106.45v106.45h-106.47v-106.45h-319.38v-106.47h532.3Zm0,638.77h-532.3v-212.92h106.45v106.47h425.84v106.45Zm-425.84-319.38h106.47v106.45h-106.47v-106.45Zm106.47-106.47h106.45v106.47h-106.45v-106.47Z"/>
</svg>