<?xml version="1.0" encoding="UTF-8"?>
<svg id="Twitter_Profil" data-name="Twitter Profil" xmlns="http://www.w3.org/2000/svg" viewBox="0 0 400 400">
  <defs>
    <style>
      .cls-1 {
        fill: #f16012;
      }
    </style>
  </defs>
  <path class="cls-1" d="m27.19,249.38H10.73v-98.75h16.46v16.46h16.46v16.46h-16.46v65.83Zm32.92-32.92h-16.46v-32.92h16.46v32.92Zm0-32.92v-16.46h16.46v-16.46h16.46v98.75h-16.46v-65.83h-16.46Z"/>
  <path class="cls-1" d="m125.94,183.54v-16.46h16.46v-16.46h16.46v82.29h32.92v16.46h-82.29v-16.46h32.92v-49.38h-16.46Zm-16.46,0h16.46v16.46h-16.46v-16.46Z"/>
  <path class="cls-1" d="m224.69,232.92h-16.46v-65.83h16.46v65.83Zm0-65.83v-16.46h49.38v16.46h-49.38Zm0,82.29v-16.46h49.38v16.46h-49.38Zm65.83-16.46h-16.46v-65.83h16.46v65.83Z"/>
  <path class="cls-1" d="m389.27,150.62v16.46h-16.46v16.46h-16.46v-16.46h-49.38v-16.46h82.29Zm0,98.75h-82.29v-32.92h16.46v16.46h65.83v16.46Zm-65.83-49.38h16.46v16.46h-16.46v-16.46Zm16.46-16.46h16.46v16.46h-16.46v-16.46Z"/>
</svg>