<?xml version="1.0" encoding="UTF-8"?>
<svg id="Ebene_1" data-name="Ebene 1" xmlns="http://www.w3.org/2000/svg" viewBox="0 0 505.5 150">
  <defs>
    <style>
      .cls-1 {
        fill: #ea661f;
      }
    </style>
  </defs>
  <path class="cls-1" d="m27.82,136.89H6.52V9h21.31v21.32h21.3v21.32h-21.3v85.26Zm42.61-42.63h-21.31v-42.63h21.31v42.63Zm0-42.63v-21.32h21.3V9h21.31v127.89h-21.31V51.64h-21.3Z"/>
  <path class="cls-1" d="m155.64,51.64v-21.32h21.3V9h21.31v106.57h42.61v21.32h-106.52v-21.32h42.61v-63.94h-21.3Zm-21.31,0h21.31v21.31h-21.31v-21.31Z"/>
  <path class="cls-1" d="m283.46,115.57h-21.31V30.32h21.31v85.26Zm0-85.26V9h63.91v21.32h-63.91Zm0,106.57v-21.32h63.91v21.32h-63.91Zm85.21-21.32h-21.31V30.32h21.31v85.26Z"/>
  <path class="cls-1" d="m496.5,9v21.32h-21.31v21.32h-21.3v-21.32h-63.91V9h106.52Zm0,127.89h-106.52v-42.63h21.31v21.31h85.21v21.32Zm-85.21-63.95h21.3v21.32h-21.3v-21.32Zm21.3-21.31h21.31v21.31h-21.31v-21.31Z"/>
</svg>