<?xml version="1.0" encoding="UTF-8"?>
<svg id="Instagram_Logo" data-name="Instagram Logo" xmlns="http://www.w3.org/2000/svg" viewBox="0 0 180 180">
  <defs>
    <style>
      .cls-1 {
        fill: #f16012;
      }
    </style>
  </defs>
  <path class="cls-1" d="m13.44,111.88h-7.29v-43.75h7.29v7.29h7.29v7.29h-7.29v29.17Zm14.58-14.58h-7.29v-14.58h7.29v14.58Zm0-14.58v-7.29h7.29v-7.29h7.29v43.75h-7.29v-29.17h-7.29Z"/>
  <path class="cls-1" d="m57.19,82.71v-7.29h7.29v-7.29h7.29v36.46h14.58v7.29h-36.46v-7.29h14.58v-21.88h-7.29Zm-7.29,0h7.29v7.29h-7.29v-7.29Z"/>
  <path class="cls-1" d="m100.94,104.58h-7.29v-29.17h7.29v29.17Zm0-29.17v-7.29h21.88v7.29h-21.88Zm0,36.46v-7.29h21.88v7.29h-21.88Zm29.17-7.29h-7.29v-29.17h7.29v29.17Z"/>
  <path class="cls-1" d="m173.85,68.12v7.29h-7.29v7.29h-7.29v-7.29h-21.88v-7.29h36.46Zm0,43.75h-36.46v-14.58h7.29v7.29h29.17v7.29Zm-29.17-21.88h7.29v7.29h-7.29v-7.29Zm7.29-7.29h7.29v7.29h-7.29v-7.29Z"/>
</svg>