<?xml version="1.0" encoding="UTF-8"?>
<svg id="Twitter_Profil" data-name="Twitter Profil" xmlns="http://www.w3.org/2000/svg" viewBox="0 0 400 400">
  <defs>
    <style>
      .cls-1 {
        fill: #f16012;
      }

      .cls-2 {
        fill: #1b0c1d;
      }
    </style>
  </defs>
  <g>
    <path class="cls-1" d="m27.19,249.38H10.73v-98.75h16.46v16.46h16.46v16.46h-16.46v65.83Zm32.92-32.92h-16.46v-32.92h16.46v32.92Zm0-32.92v-16.46h16.46v-16.46h16.46v98.75h-16.46v-65.83h-16.46Z"/>
    <path class="cls-1" d="m125.94,183.54v-16.46h16.46v-16.46h16.46v82.29h32.92v16.46h-82.29v-16.46h32.92v-49.38h-16.46Zm-16.46,0h16.46v16.46h-16.46v-16.46Z"/>
    <path class="cls-1" d="m224.69,232.92h-16.46v-65.83h16.46v65.83Zm0-65.83v-16.46h49.38v16.46h-49.38Zm0,82.29v-16.46h49.38v16.46h-49.38Zm65.83-16.46h-16.46v-65.83h16.46v65.83Z"/>
    <path class="cls-1" d="m389.27,150.62v16.46h-16.46v16.46h-16.46v-16.46h-49.38v-16.46h82.29Zm0,98.75h-82.29v-32.92h16.46v16.46h65.83v16.46Zm-65.83-49.38h16.46v16.46h-16.46v-16.46Zm16.46-16.46h16.46v16.46h-16.46v-16.46Z"/>
  </g>
  <g>
    <path class="cls-2" d="m306.75,226.39c-.56,0-1.32-.22-2.29-.68-.97-.45-1.77-.61-2.4-.47l-10.73,2.92v54.82c0,2.02.49,4.2,1.46,6.57.28.7.21,2.02-.21,3.96-.42,2.15-1.08,3.51-1.98,4.06-.14.07-.49.1-1.04.1-2.29,0-5.49-.45-9.59-1.35-4.59-1.04-7.3-2.05-8.13-3.02-.97-1.25-.94-2.92.1-5,.9-1.81,1.35-3.13,1.35-3.96v-51.59l-7.4,1.88c-.35.07-.92.36-1.72.89-.8.52-1.48.71-2.03.57-1.6-.42-3.79-2.48-6.57-6.2-2.78-3.72-3.99-6.24-3.65-7.56.56-1.6,2.19-2.81,4.9-3.65.69-.21,1.6-.24,2.71-.1,1.11.14,1.98.14,2.61,0l36.27-9.28c.35-.07,1.35-.49,3.02-1.25,1.11-.49,2.12-.66,3.02-.52,1.94.28,3.26,1.04,3.96,2.29.49.83,1.01,2.4,1.56,4.69.69,2.71,1.04,5.07,1.04,7.09,0,1.53-.19,2.69-.57,3.49-.38.8-1.62,1.23-3.7,1.3Z"/>
    <path class="cls-2" d="m376.78,215.97c-3.61,9.24-7.71,23.28-12.3,42.1-4.17,17.02-6.22,26.68-6.15,28.97-.07.21,0,1.81.21,4.79.14,1.6-.1,3.06-.73,4.38-.7,1.67-1.63,2.61-2.81,2.81-2.02.42-6.06-.35-12.14-2.29-6.08-1.95-9.57-3.65-10.47-5.11-.42-.69-.66-1.6-.73-2.71-.07-1.39-.17-2.33-.31-2.81-7.92-25.08-12.68-47.56-14.28-67.43,0-.35-.17-1.08-.52-2.19-.21-.83-.28-1.56-.21-2.19.35-2.43,1.35-3.92,3.02-4.48.83-.28,3.75.38,8.75,1.98,5.28,1.67,8.2,3.09,8.75,4.27.28.7.28,2.15,0,4.38-.07.42-.31,1.03-.73,1.82-.42.8-.59,1.48-.52,2.03,1.04,7.3,2.01,13.72,2.92,19.28,2.22,13.34,3.96,21.26,5.21,23.76,1.18-6.46,3.26-14.73,6.25-24.8,2.99-10.07,5.07-18.48,6.25-25.22.07-1.32.38-3.09.94-5.32.76-1.67,1.91-2.74,3.44-3.23,1.11-.35,3.72.24,7.82,1.77,4.45,1.74,7.23,3.54,8.34,5.42Z"/>
  </g>
</svg>