<?xml version="1.0" encoding="UTF-8"?>
<svg id="Ebene_1" data-name="Ebene 1" xmlns="http://www.w3.org/2000/svg" viewBox="0 0 32 32">
  <defs>
    <style>
      .cls-1 {
        fill: #f16012;
      }

      .cls-2 {
        fill: #1b0c1d;
      }
    </style>
  </defs>
  <path class="cls-1" d="m1.85,18.01H.5v-8.09h1.35v1.35h1.35v1.35h-1.35v5.39Zm2.7-2.7h-1.35v-2.7h1.35v2.7Zm0-2.7v-1.35h1.35v-1.35h1.35v8.09h-1.35v-5.39h-1.35Z"/>
  <path class="cls-1" d="m9.93,12.61v-1.35h1.35v-1.35h1.35v6.74h2.7v1.35h-6.74v-1.35h2.7v-4.04h-1.35Zm-1.35,0h1.35v1.35h-1.35v-1.35Z"/>
  <path class="cls-1" d="m18.02,16.66h-1.35v-5.39h1.35v5.39Zm0-5.39v-1.35h4.04v1.35h-4.04Zm0,6.74v-1.35h4.04v1.35h-4.04Zm5.39-1.35h-1.35v-5.39h1.35v5.39Z"/>
  <path class="cls-1" d="m31.5,9.92v1.35h-1.35v1.35h-1.35v-1.35h-4.04v-1.35h6.74Zm0,8.09h-6.74v-2.7h1.35v1.35h5.39v1.35Zm-5.39-4.04h1.35v1.35h-1.35v-1.35Zm1.35-1.35h1.35v1.35h-1.35v-1.35Z"/>
  <path class="cls-2" d="m24.74,16.12s-.11-.02-.19-.06c-.08-.04-.15-.05-.2-.04l-.88.24v4.49c0,.17.04.34.12.54.02.06.02.17-.02.32-.03.18-.09.29-.16.33-.01,0-.04,0-.09,0-.19,0-.45-.04-.79-.11-.38-.09-.6-.17-.67-.25-.08-.1-.08-.24,0-.41.07-.15.11-.26.11-.32v-4.22l-.61.15s-.08.03-.14.07c-.07.04-.12.06-.17.05-.13-.03-.31-.2-.54-.51-.23-.3-.33-.51-.3-.62.05-.13.18-.23.4-.3.06-.02.13-.02.22,0,.09.01.16.01.21,0l2.97-.76s.11-.04.25-.1c.09-.04.17-.05.25-.04.16.02.27.09.32.19.04.07.08.2.13.38.06.22.09.42.09.58,0,.13-.02.22-.05.29-.03.07-.13.1-.3.11Z"/>
  <path class="cls-2" d="m30.48,15.27c-.3.76-.63,1.91-1.01,3.45-.34,1.39-.51,2.18-.5,2.37,0,.02,0,.15.02.39.01.13,0,.25-.06.36-.06.14-.13.21-.23.23-.17.03-.5-.03-.99-.19-.5-.16-.78-.3-.86-.42-.03-.06-.05-.13-.06-.22,0-.11-.01-.19-.03-.23-.65-2.05-1.04-3.89-1.17-5.52,0-.03-.01-.09-.04-.18-.02-.07-.02-.13-.02-.18.03-.2.11-.32.25-.37.07-.02.31.03.72.16.43.14.67.25.72.35.02.06.02.18,0,.36,0,.03-.03.08-.06.15-.03.07-.05.12-.04.17.09.6.16,1.12.24,1.58.18,1.09.32,1.74.43,1.95.1-.53.27-1.21.51-2.03.24-.82.42-1.51.51-2.07,0-.11.03-.25.08-.44.06-.14.16-.22.28-.26.09-.03.3.02.64.15.36.14.59.29.68.44Z"/>
</svg>