<?xml version="1.0" encoding="UTF-8"?>
<svg id="Instagram_Logo" data-name="Instagram Logo" xmlns="http://www.w3.org/2000/svg" viewBox="0 0 180 180">
  <defs>
    <style>
      .cls-1 {
        fill: #f16012;
      }

      .cls-2 {
        fill: #1b0c1d;
      }
    </style>
  </defs>
  <g>
    <path class="cls-1" d="m13.44,111.88h-7.29v-43.75h7.29v7.29h7.29v7.29h-7.29v29.17Zm14.58-14.58h-7.29v-14.58h7.29v14.58Zm0-14.58v-7.29h7.29v-7.29h7.29v43.75h-7.29v-29.17h-7.29Z"/>
    <path class="cls-1" d="m57.19,82.71v-7.29h7.29v-7.29h7.29v36.46h14.58v7.29h-36.46v-7.29h14.58v-21.88h-7.29Zm-7.29,0h7.29v7.29h-7.29v-7.29Z"/>
    <path class="cls-1" d="m100.94,104.58h-7.29v-29.17h7.29v29.17Zm0-29.17v-7.29h21.88v7.29h-21.88Zm0,36.46v-7.29h21.88v7.29h-21.88Zm29.17-7.29h-7.29v-29.17h7.29v29.17Z"/>
    <path class="cls-1" d="m173.85,68.12v7.29h-7.29v7.29h-7.29v-7.29h-21.88v-7.29h36.46Zm0,43.75h-36.46v-14.58h7.29v7.29h29.17v7.29Zm-29.17-21.88h7.29v7.29h-7.29v-7.29Zm7.29-7.29h7.29v7.29h-7.29v-7.29Z"/>
  </g>
  <g>
    <path class="cls-2" d="m137.29,101.69c-.25,0-.59-.1-1.02-.3-.43-.2-.79-.27-1.06-.21l-4.76,1.29v24.29c0,.89.21,1.86.65,2.91.12.31.09.89-.09,1.75-.18.95-.48,1.55-.88,1.8-.06.03-.22.05-.46.05-1.02,0-2.43-.2-4.25-.6-2.03-.46-3.23-.91-3.6-1.34-.43-.55-.42-1.29.05-2.22.4-.8.6-1.39.6-1.75v-22.86l-3.28.83c-.15.03-.41.16-.76.39-.35.23-.65.32-.9.25-.71-.18-1.68-1.1-2.91-2.75-1.23-1.65-1.77-2.76-1.62-3.35.25-.71.97-1.25,2.17-1.62.31-.09.71-.11,1.2-.05.49.06.88.06,1.15,0l16.07-4.11c.15-.03.6-.21,1.34-.55.49-.22.94-.29,1.34-.23.86.12,1.45.46,1.75,1.02.22.37.45,1.06.69,2.08.31,1.2.46,2.25.46,3.14,0,.68-.09,1.19-.25,1.55-.17.35-.72.55-1.64.58Z"/>
    <path class="cls-2" d="m168.32,97.07c-1.6,4.09-3.42,10.31-5.45,18.65-1.85,7.54-2.76,11.82-2.72,12.84-.03.09,0,.8.09,2.12.06.71-.05,1.35-.32,1.94-.31.74-.72,1.15-1.25,1.25-.89.18-2.69-.15-5.38-1.02-2.69-.86-4.24-1.62-4.64-2.26-.18-.31-.29-.71-.32-1.2-.03-.62-.08-1.03-.14-1.25-3.51-11.11-5.62-21.07-6.33-29.87,0-.15-.08-.48-.23-.97-.09-.37-.12-.69-.09-.97.15-1.08.6-1.74,1.34-1.99.37-.12,1.66.17,3.88.88,2.34.74,3.63,1.37,3.88,1.89.12.31.12.95,0,1.94-.03.18-.14.45-.32.81-.18.35-.26.65-.23.9.46,3.23.89,6.08,1.29,8.54.98,5.91,1.75,9.42,2.31,10.53.52-2.86,1.45-6.53,2.77-10.99,1.32-4.46,2.25-8.19,2.77-11.17.03-.58.17-1.37.42-2.35.34-.74.85-1.22,1.52-1.43.49-.15,1.65.11,3.46.78,1.97.77,3.2,1.57,3.69,2.4Z"/>
  </g>
</svg>