<?xml version="1.0" encoding="UTF-8"?>
<svg id="Instagram_Post" data-name="Instagram Post" xmlns="http://www.w3.org/2000/svg" viewBox="0 0 1080 1080">
  <defs>
    <style>
      .cls-1 {
        fill: #f16012;
      }

      .cls-2 {
        fill: #1b0c1d;
      }
    </style>
  </defs>
  <path class="cls-1" d="m69.69,674.33H24.89v-268.75h44.79v44.79h44.79v44.79h-44.79v179.17Zm89.58-89.58h-44.79v-89.58h44.79v89.58Zm0-89.58v-44.79h44.79v-44.79h44.79v268.75h-44.79v-179.17h-44.79Z"/>
  <path class="cls-1" d="m338.44,495.16v-44.79h44.79v-44.79h44.79v223.96h89.59v44.79h-223.96v-44.79h89.58v-134.38h-44.79Zm-44.79,0h44.79v44.79h-44.79v-44.79Z"/>
  <path class="cls-1" d="m607.19,629.53h-44.79v-179.17h44.79v179.17Zm0-179.17v-44.79h134.38v44.79h-134.38Zm0,223.96v-44.79h134.38v44.79h-134.38Zm179.17-44.79h-44.79v-179.17h44.79v179.17Z"/>
  <path class="cls-1" d="m1055.11,405.57v44.79h-44.79v44.79h-44.79v-44.79h-134.38v-44.79h223.96Zm0,268.75h-223.96v-89.58h44.79v44.79h179.17v44.79Zm-179.17-134.38h44.79v44.79h-44.79v-44.79Zm44.79-44.79h44.79v44.79h-44.79v-44.79Z"/>
  <path class="cls-2" d="m830.52,611.77c-1.52,0-3.59-.61-6.24-1.84-2.65-1.23-4.82-1.65-6.52-1.28l-29.21,7.94v149.19c0,5.49,1.32,11.44,3.97,17.87.75,1.89.57,5.49-.57,10.78-1.13,5.86-2.93,9.55-5.39,11.06-.38.19-1.32.28-2.84.28-6.24,0-14.94-1.23-26.09-3.69-12.48-2.84-19.85-5.58-22.12-8.23-2.65-3.4-2.55-7.94.28-13.61,2.46-4.92,3.69-8.51,3.69-10.78v-140.4l-20.14,5.11c-.95.19-2.51.99-4.68,2.41-2.18,1.42-4.02,1.94-5.53,1.56-4.35-1.13-10.31-6.76-17.87-16.88-7.57-10.11-10.87-16.97-9.93-20.56,1.51-4.35,5.96-7.66,13.33-9.93,1.89-.57,4.35-.66,7.38-.28,3.02.38,5.39.38,7.09,0l98.7-25.24c.94-.19,3.69-1.32,8.23-3.4,3.02-1.32,5.77-1.79,8.23-1.42,5.29.76,8.89,2.84,10.78,6.24,1.32,2.27,2.74,6.52,4.25,12.76,1.89,7.37,2.84,13.8,2.84,19.29,0,4.16-.52,7.33-1.56,9.5-1.04,2.18-4.4,3.36-10.07,3.55Z"/>
  <path class="cls-2" d="m1021.11,583.41c-9.83,25.15-20.99,63.35-33.47,114.59-11.35,46.33-16.92,72.61-16.73,78.85-.19.57,0,4.92.57,13.05.38,4.35-.28,8.32-1.99,11.91-1.89,4.54-4.44,7.09-7.66,7.66-5.49,1.13-16.5-.95-33.04-6.24-16.55-5.3-26.05-9.93-28.51-13.9-1.13-1.89-1.8-4.35-1.99-7.37-.19-3.78-.47-6.33-.85-7.66-21.56-68.26-34.51-129.43-38.86-183.51,0-.94-.47-2.93-1.42-5.96-.57-2.27-.76-4.25-.57-5.96.94-6.62,3.69-10.68,8.23-12.2,2.27-.75,10.21,1.04,23.83,5.39,14.37,4.54,22.31,8.42,23.83,11.63.75,1.89.75,5.86,0,11.91-.19,1.13-.85,2.79-1.99,4.96-1.13,2.18-1.61,4.02-1.42,5.53,2.84,19.85,5.48,37.35,7.94,52.47,6.05,36.3,10.78,57.86,14.18,64.67,3.21-17.58,8.89-40.08,17.02-67.5,8.13-27.41,13.8-50.3,17.02-68.64.19-3.59,1.04-8.41,2.55-14.46,2.08-4.54,5.2-7.47,9.36-8.79,3.02-.94,10.11.66,21.27,4.82,12.1,4.73,19.66,9.64,22.69,14.75Z"/>
</svg>